<?xml version="1.0" standalone="no"?>
<!DOCTYPE svg PUBLIC "-//W3C//DTD SVG 20010904//EN"
 "http://www.w3.org/TR/2001/REC-SVG-20010904/DTD/svg10.dtd">
<svg version="1.0" xmlns="http://www.w3.org/2000/svg"
 width="225.000000pt" height="225.000000pt" viewBox="0 0 225.000000 225.000000"
 preserveAspectRatio="xMidYMid meet">
<metadata>
Created by potrace 1.14, written by Peter Selinger 2001-2017
</metadata>
<g transform="translate(0.000000,225.000000) scale(0.100000,-0.100000)"
fill="#000000" stroke="none">
<path d="M0 1125 l0 -1125 1125 0 1125 0 0 1125 0 1125 -1125 0 -1125 0 0
-1125z m1235 859 l60 -7 -45 -13 -45 -13 41 5 c32 4 43 2 47 -10 4 -9 2 -16
-3 -16 -6 0 -10 5 -10 11 0 14 -25 6 -26 -9 -1 -7 -2 -17 -3 -22 0 -6 -12 -16
-26 -22 -14 -6 -25 -17 -25 -24 0 -14 -28 -20 -132 -28 -306 -23 -563 -231
-658 -531 -23 -73 -45 -320 -30 -340 4 -5 11 -21 14 -35 4 -15 -2 -9 -14 15
-12 22 -22 55 -23 73 -1 29 -17 48 -17 20 0 -9 -4 -8 -11 2 -10 15 -9 6 7 -50
5 -18 -4 -25 -28 -21 -5 0 -8 -7 -8 -17 -1 -16 -1 -16 -14 1 -13 16 -14 16
-20 -7 -3 -13 -3 -32 0 -40 3 -9 2 -16 -4 -16 -13 0 -19 25 -32 136 -33 271
95 575 323 764 84 70 242 151 342 176 72 17 211 32 255 28 14 -2 52 -6 85 -10z
m82 -171 c-2 -27 -3 -5 -3 47 0 52 1 74 3 48 2 -27 2 -69 0 -95z m-128 -1 c-5
-2 -7 -8 -3 -13 3 -5 0 -9 -5 -9 -6 0 -11 11 -11 25 0 22 2 24 14 13 8 -7 10
-15 5 -16z m-9 -199 l-5 -168 -3 155 c-2 136 0 180 10 180 2 0 1 -75 -2 -167z
m-374 32 c-1 -8 -5 -17 -8 -21 -5 -4 -4 16 1 34 3 9 9 -1 7 -13z m-110 -76
c-14 -11 -24 -25 -21 -30 4 -5 2 -9 -4 -9 -24 0 -19 20 11 44 18 14 34 23 37
21 2 -3 -8 -14 -23 -26z m-64 -61 c-9 -9 -9 -15 1 -27 10 -14 10 -14 -5 -3
-14 11 -18 10 -27 -5 -6 -10 -11 -14 -11 -10 0 12 44 65 49 61 3 -3 -1 -10 -7
-16z m-52 -78 c0 -5 -5 -10 -11 -10 -5 0 -7 5 -4 10 3 6 8 10 11 10 2 0 4 -4
4 -10z m-27 -53 c3 -8 -1 -14 -8 -14 -7 0 -11 6 -8 14 3 7 6 13 8 13 2 0 5 -6
8 -13z m-226 -459 c-3 -7 -5 -2 -5 12 0 14 2 19 5 13 2 -7 2 -19 0 -25z m30 0
c-3 -7 -5 -2 -5 12 0 14 2 19 5 13 2 -7 2 -19 0 -25z m-44 -41 c-6 -10 -33 18
-33 34 0 8 7 5 19 -7 10 -10 16 -22 14 -27z m-16 -35 c15 12 15 11 3 -9 -13
-20 -15 -20 -27 -5 -7 9 -12 22 -12 27 0 6 4 2 10 -8 9 -15 13 -16 26 -5z m3
-77 c0 -5 -5 -3 -10 5 -5 8 -10 20 -10 25 0 6 5 3 10 -5 5 -8 10 -19 10 -25z
m1380 8 c-1 -5 -12 -21 -26 -38 -23 -27 -24 -27 -14 -5 20 40 41 62 40 43z
m-1366 -39 c3 -8 2 -12 -4 -9 -6 3 -10 10 -10 16 0 14 7 11 14 -7z m1211 -14
c10 -11 16 -20 13 -20 -3 0 -13 9 -23 20 -10 11 -16 20 -13 20 3 0 13 -9 23
-20z m-1176 -55 c0 -5 -6 -1 -14 9 -8 11 -15 24 -15 30 0 5 7 1 15 -10 8 -10
14 -23 14 -29z m1261 41 c0 -2 -7 -7 -16 -10 -8 -3 -12 -2 -9 4 6 10 25 14 25
6z m20 -9 c0 -2 -10 -13 -23 -25 l-24 -22 -19 22 c-11 13 -13 18 -4 13 24 -15
38 -14 51 1 11 13 19 18 19 11z m-1250 -62 c-7 -9 -15 -13 -19 -10 -3 3 1 10
9 15 21 14 24 12 10 -5z"/>
</g>
</svg>
